# xmcd
#
# Track frame offsets:
#	150
#	11204
#	26557
#	46166
#	62192
#	81787
#	98809
#	109458
#	125633
#	144638
#	160319
#	171845
#	184493
#	206145
#	220225
#
# Disc length: 3524 seconds
#
# Revision: 0
# Processed by: cddbd v1.5.2PL0 Copyright (c) Steve Scherf et al.
# Submitted via: dBpowerAMP V4.0
#
DISCID=e30dc20f
DTITLE=Stella Parton - Appalachian Gospel
DYEAR=2003
DGENRE=Gospel
TTITLE0=Amazing Grace
TTITLE1=Leaning On The Everlasting Arms
TTITLE2=Farther Along
TTITLE3=Keep On The Firing Line
TTITLE4=Precious Memories
TTITLE5=In The Sweet By And By
TTITLE6=Power In The Blood Medley
TTITLE7=What A Friend We Have In Jesus
TTITLE8=Pass Me Not O Gentle Saviour
TTITLE9=This Little Light Of Mine Medley
TTITLE10=He Set Me Free
TTITLE11=Just A Little Talk With Jesus
TTITLE12=Somebody Touched Me Medley
TTITLE13=Amazing Grace 2
TTITLE14=Session Out-takes - To Canaan's Land I'm On My Way
EXTD=
EXTT0=
EXTT1=
EXTT2=
EXTT3=
EXTT4=
EXTT5=
EXTT6=
EXTT7=
EXTT8=
EXTT9=
EXTT10=
EXTT11=
EXTT12=
EXTT13=
EXTT14=
PLAYORDER=
